<?xml version="1.0" encoding="UTF-8"?> <svg xmlns="http://www.w3.org/2000/svg" width="272" height="68" viewBox="0 0 272 68" fill="none"> <path d="M21.3518 12.6319L0 33.9351L21.3518 55.2383L42.7037 33.9351L21.3518 12.6319Z" fill="#CC2214"></path> <path d="M34.0714 0L24.2905 9.75854L31.2768 16.6515L34.0714 13.8633L54.3316 34L34.0714 54.1367L31.2768 51.2711L24.2905 58.164L34.0714 68L68.149 34L34.0714 0Z" fill="black"></path> <path d="M103.546 16.4191H82.5098V20.6014H103.546V16.4191Z" fill="black"></path> <path d="M103.546 52.2005H82.5098V56.3827H103.546V52.2005Z" fill="black"></path> <path d="M103.546 45.9271H82.5098V50.1093H103.546V45.9271Z" fill="black"></path> <path d="M96.1719 28.2688H89.8066V32.5285H82.5098V36.5558H89.8066V40.8155H96.1719V36.5558H103.469V32.5285H96.1719V28.2688Z" fill="black"></path> <path d="M124.35 17.1936C125.359 17.5809 126.368 18.2005 127.222 18.9749L125.126 21.3759C123.807 20.2916 122.487 19.8269 121.012 19.8269C120.236 19.8269 119.615 19.9818 119.149 20.2916C118.683 20.6014 118.45 21.0661 118.45 21.6857C118.45 22.0729 118.528 22.4601 118.761 22.6925C118.994 22.9248 119.304 23.2346 119.848 23.467C120.391 23.6993 121.09 24.0091 122.099 24.3189C124.039 24.9385 125.437 25.713 126.368 26.5649C127.3 27.4943 127.765 28.7335 127.765 30.3599C127.765 31.5216 127.455 32.6059 126.834 33.4579C126.213 34.3872 125.359 35.0843 124.272 35.549C123.186 36.0137 121.788 36.3235 120.313 36.3235C118.761 36.3235 117.441 36.0911 116.199 35.6264C115.035 35.1617 114.026 34.4647 113.172 33.6902L115.423 31.2118C116.122 31.8314 116.898 32.2961 117.674 32.6059C118.45 32.9157 119.304 33.0706 120.158 33.0706C121.09 33.0706 121.788 32.8383 122.332 32.451C122.875 32.0638 123.108 31.4442 123.108 30.7472C123.108 30.2825 123.03 29.8952 122.797 29.5854C122.565 29.2756 122.254 28.9658 121.788 28.7335C121.322 28.5011 120.624 28.1913 119.692 27.8816C117.596 27.262 116.122 26.4875 115.268 25.5581C114.414 24.6287 113.948 23.467 113.948 22.0729C113.948 20.9886 114.259 20.0592 114.802 19.2073C115.345 18.3554 116.199 17.7358 117.208 17.2711C118.217 16.8064 119.382 16.574 120.701 16.574C122.099 16.574 123.341 16.8064 124.35 17.1936Z" fill="black"></path> <path d="M143.291 27.262C144.067 27.959 144.455 28.9658 144.455 30.3599C144.455 32.3736 143.756 33.7677 142.281 34.6196C140.806 35.4715 138.788 35.8588 136.227 35.8588H130.172V17.0387H135.528C138.167 17.0387 140.185 17.426 141.583 18.2005C142.98 18.975 143.679 20.2141 143.679 21.8406C143.679 22.9248 143.368 23.8542 142.67 24.5513C141.971 25.2483 141.195 25.713 140.185 25.9453C141.505 26.1777 142.514 26.6424 143.291 27.262ZM134.674 20.2141V24.5513H136.304C138.167 24.5513 139.099 23.7768 139.099 22.3052C139.099 21.5308 138.866 20.9886 138.322 20.6788C137.779 20.369 137.003 20.2141 135.916 20.2141H134.674ZM138.943 32.1412C139.564 31.754 139.875 31.1344 139.875 30.205C139.875 28.5011 138.788 27.5718 136.615 27.5718H134.674V32.6834H136.304C137.469 32.6059 138.322 32.451 138.943 32.1412Z" fill="black"></path> <path d="M151.441 17.0387V32.2961H158.816L158.35 35.8588H147.017V17.0387H151.441Z" fill="black"></path> <path d="M171.624 18.6652C172.788 19.5946 173.409 20.9886 173.409 22.8474C173.409 24.8611 172.788 26.3326 171.546 27.262C170.304 28.1914 168.596 28.6561 166.423 28.6561H163.784V35.9362H162.154V17.3486H166.501C168.752 17.2711 170.46 17.7358 171.624 18.6652ZM170.382 26.2552C171.313 25.5581 171.779 24.4738 171.779 22.8474C171.779 21.2984 171.313 20.2142 170.46 19.5946C169.606 18.8975 168.286 18.5877 166.578 18.5877H163.784V27.262H166.423C168.131 27.262 169.45 26.9522 170.382 26.2552Z" fill="#CC2214"></path> <path d="M183.035 27.5718H179.309V35.9363H177.679V17.3486H182.181C186.606 17.3486 188.779 19.0524 188.779 22.3827C188.779 23.6994 188.391 24.7836 187.692 25.5581C186.994 26.3326 185.985 26.9522 184.587 27.262L189.711 35.8588H187.848L183.035 27.5718ZM182.414 26.1777C185.519 26.1777 187.071 24.8611 187.071 22.3053C187.071 21.0661 186.683 20.1367 185.907 19.5171C185.131 18.8975 183.889 18.5877 182.103 18.5877H179.309V26.1777H182.414Z" fill="#CC2214"></path> <path d="M203.761 18.0456C204.925 18.7426 205.779 19.9044 206.4 21.2984C207.021 22.77 207.332 24.4738 207.332 26.5649C207.332 28.5786 207.021 30.2825 206.4 31.754C205.779 33.2255 204.925 34.3098 203.761 35.0069C202.597 35.7814 201.277 36.1686 199.724 36.1686C198.249 36.1686 196.93 35.7813 195.765 35.0843C194.601 34.3098 193.747 33.2255 193.126 31.8315C192.505 30.4374 192.195 28.6561 192.195 26.6424C192.195 24.6287 192.505 22.9249 193.126 21.4533C193.747 19.9818 194.679 18.8975 195.843 18.123C197.007 17.3485 198.327 16.9613 199.802 16.9613C201.355 16.9613 202.674 17.3485 203.761 18.0456ZM195.533 20.4465C194.446 21.8406 193.98 23.8542 193.98 26.6424C193.98 29.3531 194.523 31.3668 195.533 32.7608C196.619 34.1549 198.017 34.852 199.802 34.852C201.665 34.852 203.14 34.1549 204.149 32.8383C205.158 31.4442 205.702 29.4306 205.702 26.7198C205.702 24.0091 205.158 21.918 204.149 20.5239C203.14 19.1299 201.665 18.5103 199.802 18.5103C198.017 18.3554 196.542 19.0524 195.533 20.4465Z" fill="#CC2214"></path> <path d="M213.93 33.3804C213.93 34.4647 213.775 35.3941 213.542 36.0911C213.231 36.7882 212.843 37.3303 212.222 37.795C211.601 38.2597 210.825 38.6469 209.738 39.1116L209.272 37.9499C210.126 37.5627 210.747 37.1754 211.213 36.7882C211.679 36.4009 211.912 35.9362 212.144 35.3941C212.3 34.852 212.377 34.1549 212.377 33.303V17.2711H214.007V33.3804H213.93Z" fill="#CC2214"></path> <path d="M229.3 17.2711L229.144 18.6652H221.537V25.5581H228.135V26.9522H221.537V34.5422H229.533V35.9362H219.907V17.3485H229.3V17.2711Z" fill="#CC2214"></path> <path d="M242.729 17.426C243.428 17.7358 244.204 18.123 244.902 18.7426L244.049 19.8269C243.428 19.2848 242.807 18.975 242.263 18.7426C241.72 18.5103 241.021 18.4328 240.245 18.4328C238.46 18.4328 237.062 19.1299 235.975 20.4465C234.889 21.7631 234.345 23.8543 234.345 26.6424C234.345 28.4237 234.578 29.9727 235.122 31.2119C235.665 32.4511 236.286 33.3804 237.218 33.9226C238.149 34.4647 239.081 34.7745 240.245 34.7745C241.099 34.7745 241.875 34.6196 242.496 34.3873C243.117 34.1549 243.738 33.7677 244.359 33.2255L245.213 34.3098C243.816 35.6265 242.186 36.246 240.167 36.246C238.692 36.246 237.45 35.8588 236.286 35.1618C235.122 34.3873 234.268 33.303 233.647 31.9089C233.026 30.4374 232.715 28.7335 232.715 26.7199C232.715 24.7062 233.026 22.9249 233.724 21.5308C234.423 20.0593 235.277 18.975 236.441 18.2779C237.606 17.5809 238.848 17.1937 240.245 17.1937C241.099 16.9613 242.03 17.1162 242.729 17.426Z" fill="#CC2214"></path> <path d="M258.875 17.2711L258.72 18.7426H253.286V35.8588H251.656V18.7426H246.144V17.2711H258.875Z" fill="#CC2214"></path> <path d="M268.966 17.5034C269.82 17.8132 270.596 18.3554 271.373 19.0524L270.441 20.0593C269.743 19.4397 269.044 19.0524 268.345 18.7426C267.647 18.4328 266.948 18.3554 266.094 18.3554C264.93 18.3554 263.998 18.6652 263.3 19.2073C262.601 19.7495 262.213 20.5239 262.213 21.5308C262.213 22.1504 262.368 22.6925 262.601 23.1572C262.834 23.5444 263.3 23.9317 263.921 24.3189C264.542 24.6287 265.396 25.016 266.56 25.3258C267.802 25.713 268.811 26.1003 269.587 26.5649C270.364 27.0296 270.907 27.5718 271.373 28.2688C271.761 28.9659 271.994 29.8178 271.994 30.9021C271.994 31.9864 271.761 32.9157 271.217 33.6902C270.674 34.5422 269.975 35.1618 269.044 35.6265C268.112 36.0911 267.026 36.3235 265.784 36.3235C263.455 36.3235 261.514 35.549 259.807 34L260.738 32.9932C261.514 33.6128 262.291 34.1549 263.067 34.4647C263.843 34.7745 264.775 34.9294 265.784 34.9294C267.103 34.9294 268.19 34.5422 269.044 33.8451C269.898 33.1481 270.286 32.2187 270.286 30.9795C270.286 30.205 270.131 29.5854 269.898 29.1208C269.587 28.6561 269.199 28.1914 268.501 27.8816C267.88 27.4943 267.026 27.1845 265.861 26.7973C263.921 26.2552 262.601 25.5581 261.747 24.7836C260.893 24.0091 260.505 23.0023 260.505 21.6857C260.505 20.8337 260.738 20.0593 261.204 19.3622C261.67 18.6652 262.291 18.123 263.144 17.7358C263.998 17.3485 264.93 17.1162 266.017 17.1162C267.181 16.9613 268.19 17.1162 268.966 17.5034Z" fill="#CC2214"></path> <path d="M120.779 44.7654L120.624 45.6173H115.734V50.0319H119.925V50.8838H115.734V55.6856H120.857V56.5376H114.724V44.7654H120.779Z" fill="black"></path> <path d="M129.473 48.0957C129.939 48.5603 130.094 49.2574 130.094 50.1093V56.5376H129.085V50.1868C129.085 49.4897 128.93 48.9476 128.619 48.5604C128.309 48.1731 127.921 48.0957 127.377 48.0957C126.834 48.0957 126.291 48.2506 125.825 48.5604C125.359 48.8701 124.971 49.3348 124.583 49.9544V56.4601H123.574V47.5535H124.428L124.505 49.1025C124.893 48.5604 125.281 48.1731 125.825 47.8633C126.368 47.5535 126.912 47.3986 127.533 47.3986C128.386 47.3986 129.007 47.631 129.473 48.0957Z" fill="black"></path> <path d="M140.418 47.7084C139.875 47.8633 139.021 47.9408 137.934 47.9408C138.944 48.4055 139.487 49.2574 139.487 50.4191C139.487 51.2711 139.176 52.0455 138.633 52.5877C138.012 53.1298 137.236 53.4396 136.227 53.4396C135.761 53.4396 135.373 53.3622 135.062 53.2847C134.829 53.4396 134.674 53.5945 134.519 53.7494C134.364 53.9043 134.364 54.1367 134.364 54.2916C134.364 54.9111 134.829 55.2209 135.838 55.2209H137.313C138.167 55.2209 138.944 55.4533 139.409 55.8405C139.953 56.3052 140.186 56.8474 140.186 57.5444C140.186 58.3963 139.875 59.0159 139.176 59.4806C138.478 59.9453 137.546 60.1777 136.227 60.1777C134.907 60.1777 133.898 59.9453 133.354 59.5581C132.733 59.1708 132.501 58.4738 132.501 57.5444H133.432C133.432 58.0091 133.51 58.3189 133.743 58.5512C133.898 58.7836 134.208 59.0159 134.596 59.0934C134.985 59.1708 135.528 59.2483 136.304 59.2483C137.313 59.2483 138.09 59.0934 138.555 58.7836C139.021 58.4738 139.254 58.0865 139.254 57.5444C139.254 57.0797 139.099 56.6925 138.711 56.4601C138.323 56.2278 137.857 56.0729 137.236 56.0729H135.761C135.062 56.0729 134.519 55.918 134.131 55.6082C133.743 55.2984 133.587 54.9111 133.587 54.4465C133.587 54.1367 133.665 53.8269 133.82 53.5945C133.975 53.3622 134.208 53.1298 134.519 52.8975C133.975 52.6651 133.587 52.2779 133.354 51.8906C133.122 51.5034 132.966 50.9613 132.966 50.3417C132.966 49.4123 133.277 48.7152 133.898 48.0957C134.519 47.5535 135.295 47.2437 136.304 47.2437C137.391 47.2437 138.167 47.2437 138.711 47.0888C139.254 46.9339 139.72 46.8565 140.263 46.6241L140.418 47.7084ZM134.441 48.7927C134.053 49.1799 133.898 49.7221 133.898 50.4191C133.898 51.1162 134.131 51.6583 134.519 52.123C134.907 52.5877 135.45 52.7426 136.227 52.7426C137.003 52.7426 137.546 52.5102 137.934 52.123C138.323 51.7357 138.555 51.1936 138.555 50.4191C138.555 49.7221 138.4 49.1025 138.012 48.7152C137.624 48.328 137.081 48.0957 136.304 48.0957C135.373 48.1731 134.829 48.328 134.441 48.7927Z" fill="black"></path> <path d="M143.446 43.7585C143.601 43.9134 143.679 44.0683 143.679 44.3007C143.679 44.533 143.601 44.6879 143.446 44.8428C143.291 44.9977 143.135 45.0752 142.902 45.0752C142.67 45.0752 142.514 44.9977 142.359 44.8428C142.204 44.6879 142.126 44.533 142.126 44.3007C142.126 44.0683 142.204 43.9134 142.359 43.7585C142.514 43.6036 142.67 43.5262 142.902 43.5262C143.058 43.6036 143.291 43.6811 143.446 43.7585ZM143.368 47.5535V56.615H142.359V47.5535H143.368Z" fill="black"></path> <path d="M152.916 48.0957C153.382 48.5603 153.537 49.2574 153.537 50.1093V56.5376H152.528V50.1868C152.528 49.4897 152.373 48.9476 152.062 48.5604C151.752 48.1731 151.364 48.0957 150.82 48.0957C150.277 48.0957 149.734 48.2506 149.268 48.5604C148.802 48.8701 148.414 49.3348 148.026 49.9544V56.4601H147.017V47.5535H147.87L147.948 49.1025C148.336 48.5604 148.724 48.1731 149.268 47.8633C149.811 47.5535 150.355 47.3986 150.976 47.3986C151.829 47.3986 152.45 47.631 152.916 48.0957Z" fill="black"></path> <path d="M163.551 52.4328H157.496C157.574 53.5945 157.807 54.4465 158.35 55.066C158.816 55.6082 159.514 55.918 160.368 55.918C160.834 55.918 161.222 55.8405 161.61 55.6856C161.998 55.5307 162.386 55.2984 162.775 54.9886L163.24 55.6082C162.775 55.9954 162.309 56.2278 161.843 56.4601C161.377 56.615 160.834 56.7699 160.291 56.7699C159.126 56.7699 158.117 56.3827 157.496 55.5307C156.797 54.6788 156.487 53.5945 156.487 52.123C156.487 51.1936 156.642 50.3417 156.953 49.6446C157.263 48.9476 157.651 48.4055 158.195 47.9408C158.738 47.5535 159.359 47.3212 160.135 47.3212C161.3 47.3212 162.154 47.7084 162.775 48.4829C163.396 49.2574 163.706 50.3417 163.706 51.6583C163.551 51.9681 163.551 52.2004 163.551 52.4328ZM162.619 51.426C162.619 50.4191 162.386 49.6446 161.998 49.025C161.61 48.4829 160.989 48.1731 160.135 48.1731C159.359 48.1731 158.816 48.4829 158.35 49.025C157.884 49.5672 157.651 50.4966 157.574 51.6583H162.697V51.426H162.619Z" fill="black"></path> <path d="M172.788 52.4328H166.734C166.811 53.5945 167.044 54.4465 167.587 55.066C168.053 55.6082 168.752 55.918 169.606 55.918C170.071 55.918 170.46 55.8405 170.848 55.6856C171.236 55.5307 171.624 55.2984 172.012 54.9886L172.478 55.6082C172.012 55.9954 171.546 56.2278 171.081 56.4601C170.615 56.615 170.071 56.7699 169.528 56.7699C168.364 56.7699 167.355 56.3827 166.734 55.5307C166.035 54.6788 165.724 53.5945 165.724 52.123C165.724 51.1936 165.88 50.3417 166.19 49.6446C166.501 48.9476 166.889 48.4055 167.432 47.9408C167.976 47.5535 168.597 47.3212 169.373 47.3212C170.537 47.3212 171.391 47.7084 172.012 48.4829C172.633 49.2574 172.944 50.3417 172.944 51.6583C172.866 51.9681 172.866 52.2004 172.788 52.4328ZM171.857 51.426C171.857 50.4191 171.624 49.6446 171.236 49.025C170.848 48.4829 170.227 48.1731 169.373 48.1731C168.597 48.1731 168.053 48.4829 167.587 49.025C167.122 49.5672 166.889 50.4966 166.811 51.6583H171.934V51.426H171.857Z" fill="black"></path> <path d="M180.085 47.4761L179.93 48.4055C179.697 48.328 179.386 48.328 179.154 48.328C178.533 48.328 178.067 48.5603 177.679 49.025C177.291 49.4897 176.98 50.1868 176.747 51.1162V56.615H175.738V47.5535H176.592L176.67 49.5672C176.902 48.7927 177.213 48.2506 177.679 47.8633C178.067 47.4761 178.61 47.3212 179.231 47.3212C179.542 47.3986 179.852 47.3986 180.085 47.4761Z" fill="black"></path> <path d="M183.19 43.7585C183.345 43.9134 183.423 44.0683 183.423 44.3007C183.423 44.533 183.345 44.6879 183.19 44.8428C183.035 44.9977 182.88 45.0752 182.647 45.0752C182.414 45.0752 182.259 44.9977 182.103 44.8428C181.948 44.6879 181.87 44.533 181.87 44.3007C181.87 44.0683 181.948 43.9134 182.103 43.7585C182.259 43.6036 182.414 43.5262 182.647 43.5262C182.88 43.6036 183.035 43.6811 183.19 43.7585ZM183.19 47.5535V56.615H182.181V47.5535H183.19Z" fill="black"></path> <path d="M192.66 48.0957C193.126 48.5603 193.281 49.2574 193.281 50.1093V56.5376H192.272V50.1868C192.272 49.4897 192.117 48.9476 191.807 48.5604C191.496 48.1731 191.108 48.0957 190.565 48.0957C190.021 48.0957 189.478 48.2506 189.012 48.5604C188.546 48.8701 188.158 49.3348 187.77 49.9544V56.4601H186.761V47.5535H187.615L187.692 49.1025C188.081 48.5604 188.469 48.1731 189.012 47.8633C189.555 47.5535 190.099 47.3986 190.72 47.3986C191.651 47.3986 192.272 47.631 192.66 48.0957Z" fill="black"></path> <path d="M203.683 47.7084C203.14 47.8633 202.286 47.9408 201.199 47.9408C202.208 48.4055 202.752 49.2574 202.752 50.4191C202.752 51.2711 202.441 52.0455 201.898 52.5877C201.277 53.1298 200.501 53.4396 199.491 53.4396C199.026 53.4396 198.638 53.3622 198.327 53.2847C198.094 53.4396 197.939 53.5945 197.784 53.7494C197.628 53.9043 197.628 54.1367 197.628 54.2916C197.628 54.9111 198.094 55.2209 199.103 55.2209H200.578C201.432 55.2209 202.208 55.4533 202.674 55.8405C203.218 56.3052 203.45 56.8474 203.45 57.5444C203.45 58.3963 203.14 59.0159 202.441 59.4806C201.82 59.9453 200.811 60.1777 199.491 60.1777C198.172 60.1777 197.163 59.9453 196.619 59.5581C195.998 59.1708 195.765 58.4738 195.765 57.5444H196.697C196.697 58.0091 196.775 58.3189 197.007 58.5512C197.163 58.7836 197.473 59.0159 197.861 59.0934C198.249 59.1708 198.793 59.2483 199.569 59.2483C200.578 59.2483 201.354 59.0934 201.82 58.7836C202.286 58.4738 202.519 58.0865 202.519 57.5444C202.519 57.0797 202.364 56.6925 201.976 56.4601C201.587 56.2278 201.122 56.0729 200.501 56.0729H199.026C198.327 56.0729 197.784 55.918 197.396 55.6082C197.007 55.2984 196.852 54.9111 196.852 54.4465C196.852 54.1367 196.93 53.8269 197.085 53.5945C197.24 53.3622 197.473 53.1298 197.784 52.8975C197.24 52.6651 196.852 52.2779 196.619 51.8906C196.386 51.5034 196.231 50.9613 196.231 50.3417C196.231 49.4123 196.542 48.7152 197.163 48.0957C197.784 47.5535 198.56 47.2437 199.569 47.2437C200.656 47.2437 201.432 47.2437 201.976 47.0888C202.519 46.9339 202.985 46.8565 203.528 46.6241L203.683 47.7084ZM197.706 48.7927C197.318 49.1799 197.163 49.7221 197.163 50.4191C197.163 51.1162 197.396 51.6583 197.784 52.123C198.172 52.5877 198.715 52.7426 199.491 52.7426C200.268 52.7426 200.811 52.5102 201.199 52.123C201.587 51.7357 201.82 51.1936 201.82 50.4191C201.82 49.7221 201.665 49.1025 201.277 48.7152C200.889 48.328 200.345 48.0957 199.569 48.0957C198.638 48.1731 198.094 48.328 197.706 48.7927Z" fill="black"></path> <path d="M215.094 44.9203C215.638 45.1526 216.103 45.4624 216.647 45.9271L216.026 46.5467C215.56 46.1594 215.172 45.9271 214.706 45.6947C214.318 45.5399 213.775 45.4624 213.231 45.4624C212.455 45.4624 211.912 45.6173 211.446 46.0045C210.98 46.3918 210.747 46.8565 210.747 47.4761C210.747 47.8633 210.825 48.2506 210.98 48.4829C211.135 48.7152 211.446 49.025 211.834 49.1799C212.222 49.4123 212.765 49.6446 213.542 49.7995C214.318 50.0319 214.939 50.2642 215.482 50.574C215.948 50.8838 216.336 51.1936 216.569 51.6583C216.802 52.123 216.957 52.6651 216.957 53.2847C216.957 53.9818 216.802 54.5239 216.491 55.066C216.181 55.6082 215.715 55.9954 215.094 56.3052C214.473 56.615 213.775 56.7699 212.998 56.7699C211.523 56.7699 210.281 56.3052 209.195 55.2984L209.816 54.6788C210.281 55.066 210.825 55.3758 211.291 55.6082C211.756 55.8405 212.377 55.918 212.998 55.918C213.852 55.918 214.551 55.6856 215.094 55.2209C215.638 54.7563 215.87 54.1367 215.87 53.3622C215.87 52.8975 215.793 52.5102 215.638 52.2004C215.482 51.8906 215.172 51.6583 214.784 51.426C214.396 51.1936 213.852 50.9613 213.076 50.7289C211.834 50.3417 210.98 49.9544 210.514 49.4897C209.971 49.025 209.738 48.328 209.738 47.5535C209.738 47.0114 209.893 46.4692 210.204 46.082C210.514 45.6173 210.902 45.3075 211.446 45.0752C211.989 44.8428 212.61 44.6879 213.231 44.6879C214.007 44.533 214.628 44.6879 215.094 44.9203Z" fill="black"></path> <path d="M226.195 52.4328H220.14C220.218 53.5945 220.45 54.4465 220.994 55.066C221.46 55.6082 222.158 55.918 223.012 55.918C223.478 55.918 223.866 55.8405 224.254 55.6856C224.642 55.5307 225.03 55.2984 225.418 54.9886L225.884 55.6082C225.418 55.9954 224.953 56.2278 224.487 56.4601C224.021 56.615 223.478 56.7699 222.934 56.7699C221.77 56.7699 220.761 56.3827 220.14 55.5307C219.441 54.6788 219.131 53.5945 219.131 52.123C219.131 51.1936 219.286 50.3417 219.597 49.6446C219.907 48.9476 220.295 48.4055 220.839 47.9408C221.382 47.4761 222.003 47.3212 222.779 47.3212C223.944 47.3212 224.797 47.7084 225.418 48.4829C226.039 49.2574 226.35 50.3417 226.35 51.6583C226.195 51.9681 226.195 52.2004 226.195 52.4328ZM225.186 51.426C225.186 50.4191 224.953 49.6446 224.565 49.025C224.176 48.4829 223.555 48.1731 222.702 48.1731C221.925 48.1731 221.382 48.4829 220.916 49.025C220.45 49.5672 220.218 50.4966 220.14 51.6583H225.263V51.426H225.186Z" fill="black"></path> <path d="M233.492 47.4761L233.336 48.4055C233.103 48.328 232.793 48.328 232.56 48.328C231.939 48.328 231.473 48.5603 231.085 49.025C230.697 49.4897 230.386 50.1868 230.154 51.1162V56.615H229.144V47.5535H229.998L230.076 49.5672C230.309 48.7927 230.619 48.2506 231.085 47.8633C231.473 47.4761 232.017 47.3212 232.638 47.3212C232.948 47.3986 233.259 47.3986 233.492 47.4761Z" fill="black"></path> <path d="M241.72 47.5535L238.615 56.615H237.373L234.112 47.5535H235.199L237.916 55.6856L240.633 47.5535H241.72V47.5535Z" fill="black"></path> <path d="M244.825 43.7585C244.98 43.9134 245.058 44.0683 245.058 44.3007C245.058 44.533 244.98 44.6879 244.825 44.8428C244.67 44.9977 244.514 45.0752 244.281 45.0752C244.049 45.0752 243.893 44.9977 243.738 44.8428C243.583 44.6879 243.505 44.533 243.505 44.3007C243.505 44.0683 243.583 43.9134 243.738 43.7585C243.893 43.6036 244.049 43.5262 244.281 43.5262C244.514 43.6036 244.747 43.6811 244.825 43.7585ZM244.825 47.5535V56.615H243.816V47.5535H244.825Z" fill="black"></path> <path d="M252.975 47.5535C253.364 47.7084 253.752 47.9408 254.14 48.2506L253.674 48.8701C253.364 48.6378 253.053 48.4829 252.743 48.328C252.432 48.2506 252.044 48.1731 251.656 48.1731C250.802 48.1731 250.103 48.4829 249.638 49.1799C249.094 49.877 248.861 50.8064 248.861 52.0455C248.861 53.2847 249.094 54.2141 249.638 54.9111C250.103 55.5307 250.802 55.8405 251.656 55.8405C252.044 55.8405 252.432 55.7631 252.743 55.6856C253.053 55.5307 253.441 55.3758 253.752 55.1435L254.217 55.8405C253.441 56.4601 252.587 56.7699 251.656 56.7699C250.88 56.7699 250.181 56.615 249.638 56.2278C249.094 55.8405 248.628 55.2984 248.318 54.6014C248.007 53.9043 247.852 53.0524 247.852 52.123C247.852 51.1936 248.007 50.3417 248.318 49.6446C248.628 48.9476 249.094 48.4055 249.638 47.9408C250.181 47.5535 250.88 47.3212 251.656 47.3212C252.122 47.3986 252.587 47.3986 252.975 47.5535Z" fill="black"></path> <path d="M262.834 52.4328H256.779C256.857 53.5945 257.09 54.4465 257.633 55.066C258.099 55.6082 258.797 55.918 259.651 55.918C260.117 55.918 260.505 55.8405 260.893 55.6856C261.281 55.5307 261.67 55.2984 262.058 54.9886L262.524 55.6082C262.058 55.9954 261.592 56.2278 261.126 56.4601C260.66 56.615 260.117 56.7699 259.574 56.7699C258.409 56.7699 257.4 56.3827 256.779 55.5307C256.081 54.6788 255.77 53.5945 255.77 52.123C255.77 51.1936 255.925 50.3417 256.236 49.6446C256.546 48.9476 256.934 48.4055 257.478 47.9408C258.021 47.4761 258.642 47.3212 259.418 47.3212C260.583 47.3212 261.437 47.7084 262.058 48.4829C262.679 49.2574 262.989 50.3417 262.989 51.6583C262.834 51.9681 262.834 52.2004 262.834 52.4328ZM261.902 51.426C261.902 50.4191 261.67 49.6446 261.281 49.025C260.893 48.4829 260.272 48.1731 259.418 48.1731C258.642 48.1731 258.099 48.4829 257.633 49.025C257.167 49.5672 256.934 50.4966 256.857 51.6583H261.98V51.426H261.902Z" fill="black"></path> <path d="M269.432 47.631C269.898 47.7859 270.364 48.0182 270.752 48.4055L270.286 49.0251C269.898 48.7153 269.51 48.5604 269.122 48.4055C268.734 48.2506 268.345 48.1731 267.88 48.1731C267.259 48.1731 266.793 48.328 266.405 48.5604C266.017 48.8702 265.861 49.18 265.861 49.6446C265.861 50.1093 266.017 50.4191 266.327 50.6515C266.638 50.8838 267.181 51.1162 268.035 51.3485C269.044 51.5809 269.82 51.9681 270.286 52.3554C270.752 52.7426 270.985 53.3622 270.985 54.0592C270.985 54.8337 270.674 55.5308 270.053 55.9954C269.432 56.4601 268.656 56.6925 267.724 56.6925C267.026 56.6925 266.405 56.615 265.939 56.3827C265.473 56.1503 264.93 55.918 264.542 55.5308L265.085 54.9112C265.473 55.221 265.939 55.4533 266.327 55.6082C266.715 55.7631 267.259 55.8405 267.724 55.8405C268.423 55.8405 268.966 55.6857 269.355 55.3759C269.743 55.0661 269.976 54.6788 269.976 54.1367C269.976 53.7494 269.898 53.4396 269.743 53.2073C269.587 52.9749 269.355 52.7426 269.044 52.5877C268.734 52.4328 268.19 52.2779 267.569 52.0456C266.638 51.8132 265.939 51.5034 265.473 51.1162C265.085 50.7289 264.852 50.2642 264.852 49.5672C264.852 49.1025 265.008 48.7153 265.24 48.328C265.473 47.9408 265.861 47.7084 266.327 47.4761C266.793 47.2437 267.259 47.1663 267.88 47.1663C268.501 47.1663 268.966 47.4761 269.432 47.631Z" fill="black"></path> </svg> 